<?xml version="1.0" encoding="UTF-8" standalone="no"?><svg xmlns="http://www.w3.org/2000/svg" xmlns:xlink="http://www.w3.org/1999/xlink" contentStyleType="text/css" height="214px" preserveAspectRatio="none" style="width:349px;height:214px;background:#FFFFFF;" version="1.1" viewBox="0 0 349 214" width="349px" zoomAndPan="magnify"><defs/><g><ellipse cx="141.75" cy="20" fill="#222222" rx="10" ry="10" style="stroke:#222222;stroke-width:1.0;"/><polygon fill="#F1F1F1" points="88.25,50,195.25,50,207.25,62,195.25,74,88.25,74,76.25,62,88.25,50" style="stroke:#181818;stroke-width:0.5;"/><text fill="#000000" font-family="sans-serif" font-size="11" lengthAdjust="spacing" textLength="107" x="88.25" y="65.8081">Graphviz installed?</text><text fill="#000000" font-family="sans-serif" font-size="11" lengthAdjust="spacing" textLength="20" x="56.25" y="59.4058">yes</text><text fill="#000000" font-family="sans-serif" font-size="11" lengthAdjust="spacing" textLength="14" x="207.25" y="59.4058">no</text><rect fill="#F1F1F1" height="47.9375" rx="12.5" ry="12.5" style="stroke:#181818;stroke-width:0.5;" width="88" x="11" y="84"/><text fill="#000000" font-family="sans-serif" font-size="12" lengthAdjust="spacing" textLength="68" x="21" y="105.1387">process all</text><text fill="#000000" font-family="sans-serif" font-size="12" lengthAdjust="spacing" textLength="58" x="21" y="119.1074">diagrams</text><rect fill="#F1F1F1" height="47.9375" rx="12.5" ry="12.5" style="stroke:#181818;stroke-width:0.5;" width="219" x="119" y="84"/><text fill="#000000" font-family="sans-serif" font-size="12" lengthAdjust="spacing" textLength="79" x="129" y="105.1387">process only</text><text fill="#000000" font-family="sans-serif" font-size="12" lengthAdjust="spacing" text-decoration="underline" textLength="62" x="129" y="119.1074">sequence</text><text fill="#000000" font-family="sans-serif" font-size="12" lengthAdjust="spacing" textLength="24" x="195" y="119.1074">and</text><text fill="#000000" font-family="sans-serif" font-size="12" lengthAdjust="spacing" text-decoration="underline" textLength="43" x="223" y="119.1074">activity</text><text fill="#000000" font-family="sans-serif" font-size="12" lengthAdjust="spacing" textLength="58" x="270" y="119.1074">diagrams</text><polygon fill="#F1F1F1" points="141.75,137.9375,153.75,149.9375,141.75,161.9375,129.75,149.9375,141.75,137.9375" style="stroke:#181818;stroke-width:0.5;"/><ellipse cx="141.75" cy="192.9375" fill="none" rx="11" ry="11" style="stroke:#222222;stroke-width:1.0;"/><ellipse cx="141.75" cy="192.9375" fill="#222222" rx="6" ry="6" style="stroke:#111111;stroke-width:1.0;"/><line style="stroke:#181818;stroke-width:1.0;" x1="76.25" x2="55" y1="62" y2="62"/><line style="stroke:#181818;stroke-width:1.0;" x1="55" x2="55" y1="62" y2="84"/><polygon fill="#181818" points="51,74,55,84,59,74,55,78" style="stroke:#181818;stroke-width:1.0;"/><line style="stroke:#181818;stroke-width:1.0;" x1="207.25" x2="228.5" y1="62" y2="62"/><line style="stroke:#181818;stroke-width:1.0;" x1="228.5" x2="228.5" y1="62" y2="84"/><polygon fill="#181818" points="224.5,74,228.5,84,232.5,74,228.5,78" style="stroke:#181818;stroke-width:1.0;"/><line style="stroke:#181818;stroke-width:1.0;" x1="55" x2="55" y1="131.9375" y2="149.9375"/><line style="stroke:#181818;stroke-width:1.0;" x1="55" x2="129.75" y1="149.9375" y2="149.9375"/><polygon fill="#181818" points="119.75,145.9375,129.75,149.9375,119.75,153.9375,123.75,149.9375" style="stroke:#181818;stroke-width:1.0;"/><line style="stroke:#181818;stroke-width:1.0;" x1="228.5" x2="228.5" y1="131.9375" y2="149.9375"/><line style="stroke:#181818;stroke-width:1.0;" x1="228.5" x2="153.75" y1="149.9375" y2="149.9375"/><polygon fill="#181818" points="163.75,145.9375,153.75,149.9375,163.75,153.9375,159.75,149.9375" style="stroke:#181818;stroke-width:1.0;"/><line style="stroke:#181818;stroke-width:1.0;" x1="141.75" x2="141.75" y1="30" y2="50"/><polygon fill="#181818" points="137.75,40,141.75,50,145.75,40,141.75,44" style="stroke:#181818;stroke-width:1.0;"/><line style="stroke:#181818;stroke-width:1.0;" x1="141.75" x2="141.75" y1="161.9375" y2="181.9375"/><polygon fill="#181818" points="137.75,171.9375,141.75,181.9375,145.75,171.9375,141.75,175.9375" style="stroke:#181818;stroke-width:1.0;"/><!--MD5=[de2a99472b7f38e28c1feec134c902c0]
@startuml
start
if (Graphviz installed?) then (yes)
  :process all\ndiagrams;
else (no)
  :process only
  __sequence__ and __activity__ diagrams;
endif
stop
@enduml

PlantUML version 1.2022.9(Tue Sep 27 16:10:06 GMT 2022)
(GPL source distribution)
Java Runtime: OpenJDK Runtime Environment
JVM: OpenJDK 64-Bit Server VM
Default Encoding: UTF-8
Language: en
Country: US
--></g></svg>