<?xml version="1.0" encoding="UTF-8" standalone="no"?><svg xmlns="http://www.w3.org/2000/svg" xmlns:xlink="http://www.w3.org/1999/xlink" contentStyleType="text/css" height="233px" preserveAspectRatio="none" style="width:884px;height:233px;background:#FFFFFF;" version="1.1" viewBox="0 0 884 233" width="884px" zoomAndPan="magnify"><defs/><g><rect fill="none" height="26.2969" id="_title" style="stroke:none;stroke-width:1.0;" width="198" x="336" y="5"/><text fill="#000000" font-family="sans-serif" font-size="14" font-weight="bold" lengthAdjust="spacing" textLength="188" x="341" y="22.9951">Bracketed line style mix</text><!--MD5=[fee4b3aad4cf285741449ffd553b2200]
entity foo--><g id="elem_foo"><polygon fill="#F1F1F1" points="318,53.2969,328,43.2969,380,43.2969,380,79.5938,370,89.5938,318,89.5938,318,53.2969" style="stroke:#181818;stroke-width:0.5;"/><line style="stroke:#181818;stroke-width:0.5;" x1="370" x2="380" y1="53.2969" y2="43.2969"/><line style="stroke:#181818;stroke-width:0.5;" x1="318" x2="370" y1="53.2969" y2="53.2969"/><line style="stroke:#181818;stroke-width:0.5;" x1="370" x2="370" y1="53.2969" y2="89.5938"/><text fill="#000000" font-family="sans-serif" font-size="14" lengthAdjust="spacing" textLength="22" x="333" y="76.292">foo</text></g><!--MD5=[e7e2d538e1588ff0e1dba32ca331f577]
entity bar--><g id="elem_bar"><ellipse cx="17" cy="195.2969" fill="#F1F1F1" rx="8" ry="8" style="stroke:#181818;stroke-width:0.5;"/><text fill="#000000" font-family="sans-serif" font-size="14" lengthAdjust="spacing" textLength="22" x="6" y="225.292">bar</text></g><!--MD5=[1c06cf48b508900128947366a7d8c357]
entity bar1--><g id="elem_bar1"><ellipse cx="106" cy="195.2969" fill="#F1F1F1" rx="8" ry="8" style="stroke:#181818;stroke-width:0.5;"/><text fill="#000000" font-family="sans-serif" font-size="14" lengthAdjust="spacing" textLength="31" x="90.5" y="225.292">bar1</text></g><!--MD5=[cc9856417573369967d900801c9884ed]
entity bar2--><g id="elem_bar2"><ellipse cx="202" cy="195.2969" fill="#F1F1F1" rx="8" ry="8" style="stroke:#181818;stroke-width:0.5;"/><text fill="#000000" font-family="sans-serif" font-size="14" lengthAdjust="spacing" textLength="31" x="186.5" y="225.292">bar2</text></g><!--MD5=[8f48d1a2ce79c2d7877355cf221303fb]
entity bar3--><g id="elem_bar3"><ellipse cx="349" cy="195.2969" fill="#F1F1F1" rx="8" ry="8" style="stroke:#181818;stroke-width:0.5;"/><text fill="#000000" font-family="sans-serif" font-size="14" lengthAdjust="spacing" textLength="31" x="333.5" y="225.292">bar3</text></g><!--MD5=[8b8a8ef27d17306cee61a5c1357e40cf]
entity bar4--><g id="elem_bar4"><ellipse cx="512" cy="195.2969" fill="#F1F1F1" rx="8" ry="8" style="stroke:#181818;stroke-width:0.5;"/><text fill="#000000" font-family="sans-serif" font-size="14" lengthAdjust="spacing" textLength="31" x="496.5" y="225.292">bar4</text></g><!--MD5=[61e442a45ee572b039fa257a36906719]
entity bar5--><g id="elem_bar5"><ellipse cx="649" cy="195.2969" fill="#F1F1F1" rx="8" ry="8" style="stroke:#181818;stroke-width:0.5;"/><text fill="#000000" font-family="sans-serif" font-size="14" lengthAdjust="spacing" textLength="31" x="633.5" y="225.292">bar5</text></g><!--MD5=[240928a865ef19fd96e25f635c75dd62]
entity bar6--><g id="elem_bar6"><ellipse cx="782" cy="195.2969" fill="#F1F1F1" rx="8" ry="8" style="stroke:#181818;stroke-width:0.5;"/><text fill="#000000" font-family="sans-serif" font-size="14" lengthAdjust="spacing" textLength="31" x="766.5" y="225.292">bar6</text></g><!--MD5=[59d9d0f196456f6685b04666c1f4428d]
link foo to bar--><g id="link_foo_bar"><path d="M317.64,70.0969 C271.76,75.1169 184.47,88.1869 117,119.2969 C81.82,135.5169 47.08,165.5769 29.27,182.2969 " fill="none" id="foo-to-bar" style="stroke:#181818;stroke-width:1.0;"/><polygon fill="#181818" points="25.53,185.8469,34.812,182.5539,29.1571,182.4054,29.3056,176.7505,25.53,185.8469" style="stroke:#181818;stroke-width:1.0;"/><text fill="#000000" font-family="sans-serif" font-size="13" lengthAdjust="spacing" textLength="11" x="118" y="132.3638">∅</text></g><!--MD5=[6e019fa8988bb7abdd854568fc8a58c9]
link foo to bar1--><g id="link_foo_bar1"><path d="M317.87,68.8669 C276.93,72.3369 204.42,83.4969 155,119.2969 C133.08,135.1769 118.32,164.1169 111.12,181.0269 " fill="none" id="foo-to-bar1" style="stroke:#FF0000;stroke-width:1.0;"/><polygon fill="#FF0000" points="109.12,185.8669,116.2381,179.06,111.0187,181.2414,108.8373,176.0221,109.12,185.8669" style="stroke:#FF0000;stroke-width:1.0;"/><text fill="#000000" font-family="sans-serif" font-size="13" lengthAdjust="spacing" textLength="54" x="156" y="132.3638">[#red,1]</text></g><!--MD5=[0ec1c50afa1888dcf933e6ec150986a8]
link foo to bar2--><g id="link_foo_bar2"><path d="M317.97,73.6769 C291.34,80.6569 253.64,94.3269 230,119.2969 C213.52,136.7069 206.53,164.7069 203.73,181.1169 " fill="none" id="foo-to-bar2" style="stroke:#FF0000;stroke-width:2.0;stroke-dasharray:7.0,7.0;"/><polygon fill="#FF0000" points="202.93,186.2069,208.2933,177.9464,203.7149,181.2689,200.3925,176.6905,202.93,186.2069" style="stroke:#FF0000;stroke-width:2.0;"/><text fill="#000000" font-family="sans-serif" font-size="13" lengthAdjust="spacing" textLength="105" x="231" y="132.3638">[#red,dashed,2]</text></g><!--MD5=[ff433615537a19186f5e8f719058367a]
link foo to bar3--><g id="link_foo_bar3"><path d="M347.45,89.2969 C346.87,98.5569 346.28,109.4469 346,119.2969 C345.38,140.8769 346.82,165.9269 347.91,180.9269 " fill="none" id="foo-to-bar3" style="stroke:#008000;stroke-width:4.0;stroke-dasharray:7.0,7.0;"/><polygon fill="#008000" points="348.29,185.9769,351.6103,176.7046,347.9185,180.9907,343.6324,177.2989,348.29,185.9769" style="stroke:#008000;stroke-width:4.0;"/><text fill="#000000" font-family="sans-serif" font-size="13" lengthAdjust="spacing" textLength="121" x="347" y="132.3638">[#green,dashed,4]</text></g><!--MD5=[9d0eaf26b6b6d021803530be274f9b80]
link foo to bar4--><g id="link_foo_bar4"><path d="M380.04,73.9569 C407.31,81.1669 446.64,95.0269 473,119.2969 C491.62,136.4469 502.86,164.5369 508.2,181.0369 " fill="none" id="foo-to-bar4" style="stroke:#0000FF;stroke-width:8.0;stroke-dasharray:1.0,3.0;"/><polygon fill="#0000FF" points="509.79,186.1569,510.9602,176.3778,508.3166,181.3789,503.3154,178.7353,509.79,186.1569" style="stroke:#0000FF;stroke-width:8.0;"/><text fill="#000000" font-family="sans-serif" font-size="13" lengthAdjust="spacing" textLength="95" x="487" y="132.3638">[blue,dotted,8]</text></g><!--MD5=[3433752a20dea8a43a5eb4ca04406e41]
link foo to bar5--><g id="link_foo_bar5"><path d="M380.18,67.3369 C428.87,68.7769 524.28,77.2669 591,119.2969 C615.49,134.7169 633.7,164.3369 642.7,181.3669 " fill="none" id="foo-to-bar5" style="stroke:#0000FF;stroke-width:16.0;"/><polygon fill="#0000FF" points="645.2,186.2269,644.6524,176.3933,642.9184,181.7778,637.5339,180.0438,645.2,186.2269" style="stroke:#0000FF;stroke-width:16.0;"/><text fill="#000000" font-family="sans-serif" font-size="13" lengthAdjust="spacing" textLength="91" x="611" y="132.3638">[blue,plain,16]</text></g><!--MD5=[9a8bce564497d5fddf84f324787359d6]
link foo to bar6--><g id="link_foo_bar6"><path d="M380.06,69.1369 C456.8,74.1069 653.35,89.4469 711,119.2969 C739.24,133.9169 762.42,164.2669 774,181.5469 " fill="none" id="foo-to-bar6" style="stroke:#0000FF;stroke-width:4.0;stroke-dasharray:7.0,7.0;"/><polygon fill="#0000FF" points="776.96,186.0469,775.3728,176.3268,774.2195,181.8648,768.6815,180.7115,776.96,186.0469" style="stroke:#0000FF;stroke-width:4.0;"/><path d="M382.06,71.1369 C458.8,76.1069 655.35,91.4469 713,121.2969 C741.24,135.9169 764.42,166.2669 776,183.5469 " fill="none" id="foo-to-bar6" style="stroke:#008000;stroke-width:4.0;stroke-dasharray:7.0,7.0;"/><text fill="#000000" font-family="sans-serif" font-size="13" lengthAdjust="spacing" textLength="141" x="735" y="132.3638">[blue;green,dashed,4]</text></g><!--MD5=[20e85fa0ce37f3401fc9b4124450b001]
@startuml
title Bracketed line style mix
node foo
foo - -> bar                             : ∅
foo -[#red,thickness=1]-> bar1          : [#red,1]
foo -[#red,dashed,thickness=2]-> bar2   : [#red,dashed,2]
foo -[#green,dashed,thickness=4]-> bar3 : [#green,dashed,4]
foo -[#blue,dotted,thickness=8]-> bar4  : [blue,dotted,8]
foo -[#blue,plain,thickness=16]-> bar5  : [blue,plain,16]
foo -[#blue;#green,dashed,thickness=4]-> bar6  : [blue;green,dashed,4]
@enduml

PlantUML version 1.2022.9(Tue Sep 27 16:10:06 GMT 2022)
(GPL source distribution)
Java Runtime: OpenJDK Runtime Environment
JVM: OpenJDK 64-Bit Server VM
Default Encoding: UTF-8
Language: en
Country: US
--></g></svg>