<?xml version="1.0" encoding="UTF-8" standalone="no"?><svg xmlns="http://www.w3.org/2000/svg" xmlns:xlink="http://www.w3.org/1999/xlink" contentStyleType="text/css" height="99px" preserveAspectRatio="none" style="width:639px;height:99px;background:#FFFFFF;" version="1.1" viewBox="0 0 639 99" width="639px" zoomAndPan="magnify"><defs/><g><line style="stroke:#333333;stroke-width:0.5;" x1="10" x2="10" y1="10" y2="70"/><line style="stroke:#333333;stroke-width:0.5;" x1="627" x2="627" y1="10" y2="70"/><line style="stroke:#333333;stroke-width:0.5;stroke-dasharray:3.0,5.0;" x1="72" x2="72" y1="10" y2="70"/><line style="stroke:#333333;stroke-width:0.5;stroke-dasharray:3.0,5.0;" x1="122" x2="122" y1="10" y2="70"/><line style="stroke:#333333;stroke-width:0.5;stroke-dasharray:3.0,5.0;" x1="172" x2="172" y1="10" y2="70"/><line style="stroke:#333333;stroke-width:0.5;stroke-dasharray:3.0,5.0;" x1="222" x2="222" y1="10" y2="70"/><line style="stroke:#333333;stroke-width:0.5;stroke-dasharray:3.0,5.0;" x1="272" x2="272" y1="10" y2="70"/><line style="stroke:#333333;stroke-width:0.5;stroke-dasharray:3.0,5.0;" x1="322" x2="322" y1="10" y2="70"/><line style="stroke:#333333;stroke-width:0.5;stroke-dasharray:3.0,5.0;" x1="372" x2="372" y1="10" y2="70"/><line style="stroke:#333333;stroke-width:0.5;stroke-dasharray:3.0,5.0;" x1="422" x2="422" y1="10" y2="70"/><line style="stroke:#333333;stroke-width:0.5;stroke-dasharray:3.0,5.0;" x1="472" x2="472" y1="10" y2="70"/><line style="stroke:#333333;stroke-width:0.5;stroke-dasharray:3.0,5.0;" x1="522" x2="522" y1="10" y2="70"/><line style="stroke:#333333;stroke-width:0.5;stroke-dasharray:3.0,5.0;" x1="572" x2="572" y1="10" y2="70"/><line style="stroke:#333333;stroke-width:0.5;stroke-dasharray:3.0,5.0;" x1="622" x2="622" y1="10" y2="70"/><line style="stroke:#333333;stroke-width:0.5;" x1="10" x2="627" y1="10" y2="10"/><line style="stroke:#006400;stroke-width:1.5;" x1="72" x2="72" y1="18" y2="32"/><line style="stroke:#006400;stroke-width:1.5;" x1="72" x2="97" y1="18" y2="18"/><line style="stroke:#006400;stroke-width:1.5;" x1="97" x2="97" y1="18" y2="32"/><line style="stroke:#006400;stroke-width:1.5;" x1="97" x2="122" y1="32" y2="32"/><line style="stroke:#006400;stroke-width:1.5;" x1="122" x2="122" y1="18" y2="32"/><line style="stroke:#006400;stroke-width:1.5;" x1="122" x2="147" y1="18" y2="18"/><line style="stroke:#006400;stroke-width:1.5;" x1="147" x2="147" y1="18" y2="32"/><line style="stroke:#006400;stroke-width:1.5;" x1="147" x2="172" y1="32" y2="32"/><line style="stroke:#006400;stroke-width:1.5;" x1="172" x2="172" y1="18" y2="32"/><line style="stroke:#006400;stroke-width:1.5;" x1="172" x2="197" y1="18" y2="18"/><line style="stroke:#006400;stroke-width:1.5;" x1="197" x2="197" y1="18" y2="32"/><line style="stroke:#006400;stroke-width:1.5;" x1="197" x2="222" y1="32" y2="32"/><line style="stroke:#006400;stroke-width:1.5;" x1="222" x2="222" y1="18" y2="32"/><line style="stroke:#006400;stroke-width:1.5;" x1="222" x2="247" y1="18" y2="18"/><line style="stroke:#006400;stroke-width:1.5;" x1="247" x2="247" y1="18" y2="32"/><line style="stroke:#006400;stroke-width:1.5;" x1="247" x2="272" y1="32" y2="32"/><line style="stroke:#006400;stroke-width:1.5;" x1="272" x2="272" y1="18" y2="32"/><line style="stroke:#006400;stroke-width:1.5;" x1="272" x2="297" y1="18" y2="18"/><line style="stroke:#006400;stroke-width:1.5;" x1="297" x2="297" y1="18" y2="32"/><line style="stroke:#006400;stroke-width:1.5;" x1="297" x2="322" y1="32" y2="32"/><line style="stroke:#006400;stroke-width:1.5;" x1="322" x2="322" y1="18" y2="32"/><line style="stroke:#006400;stroke-width:1.5;" x1="322" x2="347" y1="18" y2="18"/><line style="stroke:#006400;stroke-width:1.5;" x1="347" x2="347" y1="18" y2="32"/><line style="stroke:#006400;stroke-width:1.5;" x1="347" x2="372" y1="32" y2="32"/><line style="stroke:#006400;stroke-width:1.5;" x1="372" x2="372" y1="18" y2="32"/><line style="stroke:#006400;stroke-width:1.5;" x1="372" x2="397" y1="18" y2="18"/><line style="stroke:#006400;stroke-width:1.5;" x1="397" x2="397" y1="18" y2="32"/><line style="stroke:#006400;stroke-width:1.5;" x1="397" x2="422" y1="32" y2="32"/><line style="stroke:#006400;stroke-width:1.5;" x1="422" x2="422" y1="18" y2="32"/><line style="stroke:#006400;stroke-width:1.5;" x1="422" x2="447" y1="18" y2="18"/><line style="stroke:#006400;stroke-width:1.5;" x1="447" x2="447" y1="18" y2="32"/><line style="stroke:#006400;stroke-width:1.5;" x1="447" x2="472" y1="32" y2="32"/><line style="stroke:#006400;stroke-width:1.5;" x1="472" x2="472" y1="18" y2="32"/><line style="stroke:#006400;stroke-width:1.5;" x1="472" x2="497" y1="18" y2="18"/><line style="stroke:#006400;stroke-width:1.5;" x1="497" x2="497" y1="18" y2="32"/><line style="stroke:#006400;stroke-width:1.5;" x1="497" x2="522" y1="32" y2="32"/><line style="stroke:#006400;stroke-width:1.5;" x1="522" x2="522" y1="18" y2="32"/><line style="stroke:#006400;stroke-width:1.5;" x1="522" x2="547" y1="18" y2="18"/><line style="stroke:#006400;stroke-width:1.5;" x1="547" x2="547" y1="18" y2="32"/><line style="stroke:#006400;stroke-width:1.5;" x1="547" x2="572" y1="32" y2="32"/><line style="stroke:#006400;stroke-width:1.5;" x1="572" x2="572" y1="18" y2="32"/><line style="stroke:#006400;stroke-width:1.5;" x1="572" x2="597" y1="18" y2="18"/><line style="stroke:#006400;stroke-width:1.5;" x1="597" x2="597" y1="18" y2="32"/><line style="stroke:#006400;stroke-width:1.5;" x1="597" x2="622" y1="32" y2="32"/><line style="stroke:#006400;stroke-width:1.5;" x1="622" x2="622" y1="18" y2="32"/><line style="stroke:#006400;stroke-width:1.5;" x1="622" x2="622" y1="18" y2="18"/><line style="stroke:#333333;stroke-width:0.5;" x1="10" x2="627" y1="40" y2="40"/><text fill="#333333" font-family="sans-serif" font-size="14" font-weight="bold" lengthAdjust="spacing" textLength="52" x="15" y="59.8467">Enable</text><line style="stroke:#006400;stroke-width:2.0;" x1="72" x2="72" y1="62" y2="62"/><line style="stroke:#006400;stroke-width:2.0;" x1="72" x2="322" y1="62" y2="62"/><line style="stroke:#006400;stroke-width:2.0;" x1="322" x2="322" y1="48" y2="62"/><line style="stroke:#006400;stroke-width:2.0;" x1="322" x2="572" y1="48" y2="48"/><line style="stroke:#006400;stroke-width:2.0;" x1="572" x2="572" y1="48" y2="62"/><line style="stroke:#006400;stroke-width:2.0;" x1="572" x2="622" y1="62" y2="62"/><line style="stroke:#333333;stroke-width:2.0;" x1="72" x2="72" y1="70" y2="75"/><line style="stroke:#333333;stroke-width:2.0;" x1="122" x2="122" y1="70" y2="75"/><line style="stroke:#333333;stroke-width:2.0;" x1="172" x2="172" y1="70" y2="75"/><line style="stroke:#333333;stroke-width:2.0;" x1="222" x2="222" y1="70" y2="75"/><line style="stroke:#333333;stroke-width:2.0;" x1="272" x2="272" y1="70" y2="75"/><line style="stroke:#333333;stroke-width:2.0;" x1="322" x2="322" y1="70" y2="75"/><line style="stroke:#333333;stroke-width:2.0;" x1="372" x2="372" y1="70" y2="75"/><line style="stroke:#333333;stroke-width:2.0;" x1="422" x2="422" y1="70" y2="75"/><line style="stroke:#333333;stroke-width:2.0;" x1="472" x2="472" y1="70" y2="75"/><line style="stroke:#333333;stroke-width:2.0;" x1="522" x2="522" y1="70" y2="75"/><line style="stroke:#333333;stroke-width:2.0;" x1="572" x2="572" y1="70" y2="75"/><line style="stroke:#333333;stroke-width:2.0;" x1="622" x2="622" y1="70" y2="75"/><line style="stroke:#333333;stroke-width:2.0;" x1="72" x2="622" y1="70" y2="70"/><text fill="#333333" font-family="sans-serif" font-size="11" lengthAdjust="spacing" textLength="7" x="68.5" y="86.2104">0</text><text fill="#333333" font-family="sans-serif" font-size="11" lengthAdjust="spacing" textLength="7" x="118.5" y="86.2104">1</text><text fill="#333333" font-family="sans-serif" font-size="11" lengthAdjust="spacing" textLength="7" x="318.5" y="86.2104">5</text><text fill="#333333" font-family="sans-serif" font-size="11" lengthAdjust="spacing" textLength="14" x="565" y="86.2104">10</text><!--MD5=[231022dfc94550eee4605a1aa02038f9]
@startuml
clock clk with period 1
binary "Enable" as EN

@0
EN is low

@5
EN is high

@10
EN is low
@enduml

PlantUML version 1.2022.9(Tue Sep 27 16:10:06 GMT 2022)
(GPL source distribution)
Java Runtime: OpenJDK Runtime Environment
JVM: OpenJDK 64-Bit Server VM
Default Encoding: UTF-8
Language: en
Country: US
--></g></svg>