<?xml version="1.0" encoding="UTF-8" standalone="no"?><svg xmlns="http://www.w3.org/2000/svg" xmlns:xlink="http://www.w3.org/1999/xlink" contentStyleType="text/css" height="201px" preserveAspectRatio="none" style="width:242px;height:201px;background:#FFFFFF;" version="1.1" viewBox="0 0 242 201" width="242px" zoomAndPan="magnify"><defs/><g><line style="stroke:#C0C0C0;stroke-width:1.0;" x1="0" x2="0" y1="0" y2="185.2422"/><line style="stroke:#C0C0C0;stroke-width:1.0;" x1="16" x2="16" y1="0" y2="185.2422"/><line style="stroke:#C0C0C0;stroke-width:1.0;" x1="32" x2="32" y1="0" y2="185.2422"/><line style="stroke:#C0C0C0;stroke-width:1.0;" x1="48" x2="48" y1="0" y2="185.2422"/><line style="stroke:#C0C0C0;stroke-width:1.0;" x1="64" x2="64" y1="0" y2="185.2422"/><line style="stroke:#C0C0C0;stroke-width:1.0;" x1="80" x2="80" y1="0" y2="185.2422"/><line style="stroke:#C0C0C0;stroke-width:1.0;" x1="96" x2="96" y1="0" y2="185.2422"/><line style="stroke:#C0C0C0;stroke-width:1.0;" x1="112" x2="112" y1="0" y2="185.2422"/><line style="stroke:#C0C0C0;stroke-width:1.0;" x1="128" x2="128" y1="0" y2="185.2422"/><line style="stroke:#C0C0C0;stroke-width:1.0;" x1="144" x2="144" y1="0" y2="185.2422"/><line style="stroke:#C0C0C0;stroke-width:1.0;" x1="160" x2="160" y1="0" y2="185.2422"/><line style="stroke:#C0C0C0;stroke-width:1.0;" x1="176" x2="176" y1="0" y2="185.2422"/><line style="stroke:#C0C0C0;stroke-width:1.0;" x1="192" x2="192" y1="0" y2="185.2422"/><line style="stroke:#C0C0C0;stroke-width:1.0;" x1="208" x2="208" y1="0" y2="185.2422"/><line style="stroke:#C0C0C0;stroke-width:1.0;" x1="224" x2="224" y1="0" y2="185.2422"/><line style="stroke:#C0C0C0;stroke-width:1.0;" x1="240" x2="240" y1="0" y2="185.2422"/><text fill="#000000" font-family="Serif" font-size="10" lengthAdjust="spacing" textLength="6" x="5" y="9.2822">1</text><text fill="#000000" font-family="Serif" font-size="10" lengthAdjust="spacing" textLength="6" x="21" y="9.2822">2</text><text fill="#000000" font-family="Serif" font-size="10" lengthAdjust="spacing" textLength="6" x="37" y="9.2822">3</text><text fill="#000000" font-family="Serif" font-size="10" lengthAdjust="spacing" textLength="6" x="53" y="9.2822">4</text><text fill="#000000" font-family="Serif" font-size="10" lengthAdjust="spacing" textLength="6" x="69" y="9.2822">5</text><text fill="#000000" font-family="Serif" font-size="10" lengthAdjust="spacing" textLength="6" x="85" y="9.2822">6</text><text fill="#000000" font-family="Serif" font-size="10" lengthAdjust="spacing" textLength="6" x="101" y="9.2822">7</text><text fill="#000000" font-family="Serif" font-size="10" lengthAdjust="spacing" textLength="6" x="117" y="9.2822">8</text><text fill="#000000" font-family="Serif" font-size="10" lengthAdjust="spacing" textLength="6" x="133" y="9.2822">9</text><text fill="#000000" font-family="Serif" font-size="10" lengthAdjust="spacing" textLength="12" x="146" y="9.2822">10</text><text fill="#000000" font-family="Serif" font-size="10" lengthAdjust="spacing" textLength="12" x="162" y="9.2822">11</text><text fill="#000000" font-family="Serif" font-size="10" lengthAdjust="spacing" textLength="12" x="178" y="9.2822">12</text><text fill="#000000" font-family="Serif" font-size="10" lengthAdjust="spacing" textLength="12" x="194" y="9.2822">13</text><text fill="#000000" font-family="Serif" font-size="10" lengthAdjust="spacing" textLength="12" x="210" y="9.2822">14</text><text fill="#000000" font-family="Serif" font-size="10" lengthAdjust="spacing" textLength="12" x="226" y="9.2822">15</text><line style="stroke:#C0C0C0;stroke-width:1.0;" x1="0" x2="240" y1="0" y2="0"/><line style="stroke:#C0C0C0;stroke-width:1.0;" x1="0" x2="240" y1="13" y2="13"/><rect fill="#E2E2F0" height="12.8047" style="stroke:none;stroke-width:1.0;" width="236" x="2" y="18"/><line style="stroke:#181818;stroke-width:1.0;" x1="2" x2="238" y1="18" y2="18"/><line style="stroke:#181818;stroke-width:1.0;" x1="2" x2="238" y1="30.8047" y2="30.8047"/><line style="stroke:#181818;stroke-width:1.0;" x1="2" x2="2" y1="18" y2="30.8047"/><line style="stroke:#181818;stroke-width:1.0;" x1="238" x2="238" y1="18" y2="30.8047"/><rect fill="#E2E2F0" height="12.8047" style="stroke:none;stroke-width:1.0;" width="156" x="2" y="34.8047"/><line style="stroke:#181818;stroke-width:1.0;" x1="2" x2="158" y1="34.8047" y2="34.8047"/><line style="stroke:#181818;stroke-width:1.0;" x1="2" x2="158" y1="47.6094" y2="47.6094"/><line style="stroke:#181818;stroke-width:1.0;" x1="2" x2="2" y1="34.8047" y2="47.6094"/><line style="stroke:#181818;stroke-width:1.0;" x1="158" x2="158" y1="34.8047" y2="47.6094"/><line style="stroke:#181818;stroke-width:1.0;" x1="0" x2="5" y1="66.0117" y2="66.0117"/><line style="stroke:#181818;stroke-width:1.0;" x1="80" x2="239" y1="66.0117" y2="66.0117"/><rect fill="#E2E2F0" height="12.8047" style="stroke:none;stroke-width:1.0;" width="12" x="2" y="84.4141"/><line style="stroke:#181818;stroke-width:1.0;" x1="2" x2="14" y1="84.4141" y2="84.4141"/><line style="stroke:#181818;stroke-width:1.0;" x1="2" x2="14" y1="97.2188" y2="97.2188"/><line style="stroke:#181818;stroke-width:1.0;" x1="2" x2="2" y1="84.4141" y2="97.2188"/><line style="stroke:#181818;stroke-width:1.0;" x1="14" x2="14" y1="84.4141" y2="97.2188"/><rect fill="#E2E2F0" height="12.8047" style="stroke:none;stroke-width:1.0;" width="76" x="2" y="101.2188"/><line style="stroke:#181818;stroke-width:1.0;" x1="2" x2="78" y1="101.2188" y2="101.2188"/><line style="stroke:#181818;stroke-width:1.0;" x1="2" x2="78" y1="114.0234" y2="114.0234"/><line style="stroke:#181818;stroke-width:1.0;" x1="2" x2="2" y1="101.2188" y2="114.0234"/><line style="stroke:#181818;stroke-width:1.0;" x1="78" x2="78" y1="101.2188" y2="114.0234"/><rect fill="#E2E2F0" height="12.8047" style="stroke:none;stroke-width:1.0;" width="108" x="2" y="118.0234"/><line style="stroke:#181818;stroke-width:1.0;" x1="2" x2="110" y1="118.0234" y2="118.0234"/><line style="stroke:#181818;stroke-width:1.0;" x1="2" x2="110" y1="130.8281" y2="130.8281"/><line style="stroke:#181818;stroke-width:1.0;" x1="2" x2="2" y1="118.0234" y2="130.8281"/><line style="stroke:#181818;stroke-width:1.0;" x1="110" x2="110" y1="118.0234" y2="130.8281"/><rect fill="#E2E2F0" height="12.8047" style="stroke:none;stroke-width:1.0;" width="172" x="2" y="134.8281"/><line style="stroke:#181818;stroke-width:1.0;" x1="2" x2="174" y1="134.8281" y2="134.8281"/><line style="stroke:#181818;stroke-width:1.0;" x1="2" x2="174" y1="147.6328" y2="147.6328"/><line style="stroke:#181818;stroke-width:1.0;" x1="2" x2="2" y1="134.8281" y2="147.6328"/><line style="stroke:#181818;stroke-width:1.0;" x1="174" x2="174" y1="134.8281" y2="147.6328"/><rect fill="#E2E2F0" height="12.8047" style="stroke:none;stroke-width:1.0;" width="220" x="2" y="151.6328"/><line style="stroke:#181818;stroke-width:1.0;" x1="2" x2="222" y1="151.6328" y2="151.6328"/><line style="stroke:#181818;stroke-width:1.0;" x1="2" x2="222" y1="164.4375" y2="164.4375"/><line style="stroke:#181818;stroke-width:1.0;" x1="2" x2="2" y1="151.6328" y2="164.4375"/><line style="stroke:#181818;stroke-width:1.0;" x1="222" x2="222" y1="151.6328" y2="164.4375"/><rect fill="#E2E2F0" height="12.8047" style="stroke:none;stroke-width:1.0;" width="108" x="2" y="168.4375"/><line style="stroke:#181818;stroke-width:1.0;" x1="2" x2="110" y1="168.4375" y2="168.4375"/><line style="stroke:#181818;stroke-width:1.0;" x1="2" x2="110" y1="181.2422" y2="181.2422"/><line style="stroke:#181818;stroke-width:1.0;" x1="2" x2="2" y1="168.4375" y2="181.2422"/><line style="stroke:#181818;stroke-width:1.0;" x1="110" x2="110" y1="168.4375" y2="181.2422"/><text fill="#000000" font-family="sans-serif" font-size="11" lengthAdjust="spacing" textLength="96" x="6" y="28.2104">Prototype design</text><text fill="#000000" font-family="sans-serif" font-size="11" lengthAdjust="spacing" textLength="83" x="6" y="45.0151">Test prototype</text><text fill="#000000" font-family="sans-serif" font-size="11" lengthAdjust="spacing" textLength="65" x="10" y="69.8198">All example</text><text fill="#000000" font-family="sans-serif" font-size="11" lengthAdjust="spacing" textLength="81" x="18" y="94.6245">Task 1 (1 day)</text><text fill="#000000" font-family="sans-serif" font-size="11" lengthAdjust="spacing" textLength="64" x="6" y="111.4292">T2 (5 days)</text><text fill="#000000" font-family="sans-serif" font-size="11" lengthAdjust="spacing" textLength="66" x="6" y="128.2339">T3 (1 week)</text><text fill="#000000" font-family="sans-serif" font-size="11" lengthAdjust="spacing" textLength="133" x="6" y="145.0386">T4 (1 week and 4 days)</text><text fill="#000000" font-family="sans-serif" font-size="11" lengthAdjust="spacing" textLength="73" x="6" y="161.8433">T5 (2 weeks)</text><text fill="#000000" font-family="sans-serif" font-size="11" lengthAdjust="spacing" textLength="14" x="6" y="178.6479">T6</text><line style="stroke:#C0C0C0;stroke-width:1.0;" x1="0" x2="0" y1="186.2422" y2="199.2422"/><line style="stroke:#C0C0C0;stroke-width:1.0;" x1="16" x2="16" y1="186.2422" y2="199.2422"/><line style="stroke:#C0C0C0;stroke-width:1.0;" x1="32" x2="32" y1="186.2422" y2="199.2422"/><line style="stroke:#C0C0C0;stroke-width:1.0;" x1="48" x2="48" y1="186.2422" y2="199.2422"/><line style="stroke:#C0C0C0;stroke-width:1.0;" x1="64" x2="64" y1="186.2422" y2="199.2422"/><line style="stroke:#C0C0C0;stroke-width:1.0;" x1="80" x2="80" y1="186.2422" y2="199.2422"/><line style="stroke:#C0C0C0;stroke-width:1.0;" x1="96" x2="96" y1="186.2422" y2="199.2422"/><line style="stroke:#C0C0C0;stroke-width:1.0;" x1="112" x2="112" y1="186.2422" y2="199.2422"/><line style="stroke:#C0C0C0;stroke-width:1.0;" x1="128" x2="128" y1="186.2422" y2="199.2422"/><line style="stroke:#C0C0C0;stroke-width:1.0;" x1="144" x2="144" y1="186.2422" y2="199.2422"/><line style="stroke:#C0C0C0;stroke-width:1.0;" x1="160" x2="160" y1="186.2422" y2="199.2422"/><line style="stroke:#C0C0C0;stroke-width:1.0;" x1="176" x2="176" y1="186.2422" y2="199.2422"/><line style="stroke:#C0C0C0;stroke-width:1.0;" x1="192" x2="192" y1="186.2422" y2="199.2422"/><line style="stroke:#C0C0C0;stroke-width:1.0;" x1="208" x2="208" y1="186.2422" y2="199.2422"/><line style="stroke:#C0C0C0;stroke-width:1.0;" x1="224" x2="224" y1="186.2422" y2="199.2422"/><line style="stroke:#C0C0C0;stroke-width:1.0;" x1="240" x2="240" y1="186.2422" y2="199.2422"/><text fill="#000000" font-family="Serif" font-size="10" lengthAdjust="spacing" textLength="6" x="5" y="195.5244">1</text><text fill="#000000" font-family="Serif" font-size="10" lengthAdjust="spacing" textLength="6" x="21" y="195.5244">2</text><text fill="#000000" font-family="Serif" font-size="10" lengthAdjust="spacing" textLength="6" x="37" y="195.5244">3</text><text fill="#000000" font-family="Serif" font-size="10" lengthAdjust="spacing" textLength="6" x="53" y="195.5244">4</text><text fill="#000000" font-family="Serif" font-size="10" lengthAdjust="spacing" textLength="6" x="69" y="195.5244">5</text><text fill="#000000" font-family="Serif" font-size="10" lengthAdjust="spacing" textLength="6" x="85" y="195.5244">6</text><text fill="#000000" font-family="Serif" font-size="10" lengthAdjust="spacing" textLength="6" x="101" y="195.5244">7</text><text fill="#000000" font-family="Serif" font-size="10" lengthAdjust="spacing" textLength="6" x="117" y="195.5244">8</text><text fill="#000000" font-family="Serif" font-size="10" lengthAdjust="spacing" textLength="6" x="133" y="195.5244">9</text><text fill="#000000" font-family="Serif" font-size="10" lengthAdjust="spacing" textLength="12" x="146" y="195.5244">10</text><text fill="#000000" font-family="Serif" font-size="10" lengthAdjust="spacing" textLength="12" x="162" y="195.5244">11</text><text fill="#000000" font-family="Serif" font-size="10" lengthAdjust="spacing" textLength="12" x="178" y="195.5244">12</text><text fill="#000000" font-family="Serif" font-size="10" lengthAdjust="spacing" textLength="12" x="194" y="195.5244">13</text><text fill="#000000" font-family="Serif" font-size="10" lengthAdjust="spacing" textLength="12" x="210" y="195.5244">14</text><text fill="#000000" font-family="Serif" font-size="10" lengthAdjust="spacing" textLength="12" x="226" y="195.5244">15</text><line style="stroke:#C0C0C0;stroke-width:1.0;" x1="0" x2="240" y1="186.2422" y2="186.2422"/><!--MD5=[1b1cdff66a1129c11295155d3d351596]
@startgantt
[Prototype design] lasts 15 days
[Test prototype] lasts 10 days
- - All example - -
[Task 1 (1 day)] lasts 1 day
[T2 (5 days)] lasts 5 days
[T3 (1 week)] lasts 1 week
[T4 (1 week and 4 days)] lasts 1 week and 4 days
[T5 (2 weeks)] lasts 2 weeks
[T6] lasts 1 week
@endgantt

PlantUML version 1.2022.9(Tue Sep 27 16:10:06 GMT 2022)
(GPL source distribution)
Java Runtime: OpenJDK Runtime Environment
JVM: OpenJDK 64-Bit Server VM
Default Encoding: UTF-8
Language: en
Country: US
--></g></svg>