<?xml version="1.0" encoding="UTF-8" standalone="no"?><svg xmlns="http://www.w3.org/2000/svg" xmlns:xlink="http://www.w3.org/1999/xlink" contentStyleType="text/css" height="226px" preserveAspectRatio="none" style="width:295px;height:226px;background:#FFFFFF;" version="1.1" viewBox="0 0 295 226" width="295px" zoomAndPan="magnify"><defs/><g><!--MD5=[bc938698130bec3721522f38f16e3aed]
cluster Restaurant--><g id="cluster_Restaurant"><rect fill="none" height="213" rx="2.5" ry="2.5" style="stroke:#181818;stroke-width:1.0;" width="166" x="123" y="7"/><text fill="#000000" font-family="sans-serif" font-size="14" font-weight="bold" lengthAdjust="spacing" textLength="86" x="163" y="21.9951">Restaurant</text></g><g id="elem_UC1"><ellipse cx="206.0868" cy="57.2397" fill="#F1F1F1" rx="55.5868" ry="14.7397" style="stroke:#181818;stroke-width:0.5;"/><text fill="#000000" font-family="sans-serif" font-size="14" lengthAdjust="spacing" textLength="61" x="172.5868" y="60.9873">Eat Food</text></g><g id="elem_UC2"><ellipse cx="206.1678" cy="122.8336" fill="#F1F1F1" rx="67.1678" ry="15.8336" style="stroke:#181818;stroke-width:0.5;"/><text fill="#000000" font-family="sans-serif" font-size="14" lengthAdjust="spacing" textLength="85" x="160.6678" y="126.5811">Pay for Food</text></g><g id="elem_UC3"><ellipse cx="205.9961" cy="189.0423" fill="#F1F1F1" rx="36.9961" ry="14.5423" style="stroke:#181818;stroke-width:0.5;"/><text fill="#000000" font-family="sans-serif" font-size="14" lengthAdjust="spacing" textLength="36" x="186.6301" y="192.3527">Drink</text></g><!--MD5=[db756db308cf6ff8cfeeb51570136b75]
entity fc--><g id="elem_fc"><ellipse cx="42.5" cy="93.5" fill="#F1F1F1" rx="8" ry="8" style="stroke:#181818;stroke-width:0.5;"/><path d="M42.5,101.5 L42.5,128.5 M29.5,109.5 L55.5,109.5 M42.5,128.5 L29.5,143.5 M42.5,128.5 L55.5,143.5 " fill="none" style="stroke:#181818;stroke-width:0.5;"/><text fill="#000000" font-family="sans-serif" font-size="14" lengthAdjust="spacing" textLength="73" x="6" y="157.9951">Food Critic</text></g><!--MD5=[e9923d9fd4075a960db40f09654be8d8]
link fc to UC1--><g id="link_fc_UC1"><path d="M79.18,105.15 C90.52,99.72 103.19,93.89 115,89 C131.38,82.21 149.78,75.51 165.66,70.01 " fill="none" id="fc-to-UC1" style="stroke:#181818;stroke-width:1.0;"/><polygon fill="#181818" points="170.5,68.34,160.688,67.4888,165.7725,69.9682,163.2931,75.0527,170.5,68.34" style="stroke:#181818;stroke-width:1.0;"/></g><!--MD5=[4af9e8427d276ef4a9c3c7d33d3ba91c]
link fc to UC2--><g id="link_fc_UC2"><path d="M79.34,123 C95.31,123 114.72,123 133.45,123 " fill="none" id="fc-to-UC2" style="stroke:#181818;stroke-width:1.0;"/><polygon fill="#181818" points="138.71,123,129.71,119,133.71,123,129.71,127,138.71,123" style="stroke:#181818;stroke-width:1.0;"/></g><!--MD5=[71fba4d683dd6a260b46bc412e62a629]
link fc to UC3--><g id="link_fc_UC3"><path d="M79.26,140.19 C90.6,145.46 103.25,151.14 115,156 C133.98,163.84 155.57,171.79 172.85,177.92 " fill="none" id="fc-to-UC3" style="stroke:#181818;stroke-width:1.0;"/><polygon fill="#181818" points="177.6,179.6,170.4358,172.8417,172.8829,177.9419,167.7828,180.389,177.6,179.6" style="stroke:#181818;stroke-width:1.0;"/></g><!--MD5=[11f189d0c7f4c8a8c5b85f20cc931f76]
@startuml
left to right direction
actor "Food Critic" as fc
rectangle Restaurant {
  usecase "Eat Food" as UC1
  usecase "Pay for Food" as UC2
  usecase "Drink" as UC3
}
fc - -> UC1
fc - -> UC2
fc - -> UC3
@enduml

PlantUML version 1.2022.9(Tue Sep 27 16:10:06 GMT 2022)
(GPL source distribution)
Java Runtime: OpenJDK Runtime Environment
JVM: OpenJDK 64-Bit Server VM
Default Encoding: UTF-8
Language: en
Country: US
--></g></svg>