<?xml version="1.0" encoding="UTF-8" standalone="no"?><svg xmlns="http://www.w3.org/2000/svg" xmlns:xlink="http://www.w3.org/1999/xlink" contentStyleType="text/css" height="570px" preserveAspectRatio="none" style="width:513px;height:570px;background:#FFFFFF;" version="1.1" viewBox="0 0 513 570" width="513px" zoomAndPan="magnify"><defs/><g><!--MD5=[262aabfe314dcb38308ea550cce12173]
cluster Some Group--><g id="cluster_Some Group"><path d="M8.5,6 L107.5,6 A3.75,3.75 0 0 1 110,8.5 L117,28.2969 L461.5,28.2969 A2.5,2.5 0 0 1 464,30.7969 L464,100.5 A2.5,2.5 0 0 1 461.5,103 L8.5,103 A2.5,2.5 0 0 1 6,100.5 L6,8.5 A2.5,2.5 0 0 1 8.5,6 " fill="none" style="stroke:#000000;stroke-width:1.5;"/><line style="stroke:#000000;stroke-width:1.5;" x1="6" x2="117" y1="28.2969" y2="28.2969"/><text fill="#000000" font-family="sans-serif" font-size="14" font-weight="bold" lengthAdjust="spacing" textLength="98" x="10" y="20.9951">Some Group</text></g><!--MD5=[a809f7b457cbc4d947186a4bb863b06b]
cluster Other Groups--><g id="cluster_Other Groups"><polygon fill="none" points="38,137,48,127,303,127,303,219,293,229,38,229,38,137" style="stroke:#181818;stroke-width:1.0;"/><line style="stroke:#181818;stroke-width:1.0;" x1="293" x2="303" y1="137" y2="127"/><line style="stroke:#181818;stroke-width:1.0;" x1="38" x2="293" y1="137" y2="137"/><line style="stroke:#181818;stroke-width:1.0;" x1="293" x2="293" y1="137" y2="229"/><text fill="#000000" font-family="sans-serif" font-size="14" font-weight="bold" lengthAdjust="spacing" textLength="108" x="112.5" y="152.9951">Other Groups</text></g><g id="cluster_##12"><path d="M335.1187,159.2583 C339.3128,153.2342 343.3886,153.5677 347.9901,158.7921 C351.5154,151.3317 356.1475,152.2471 361.1801,157.189 C364.4102,151.4402 369.3784,151.4954 372.8153,156.9748 C376.5845,149.9288 381.1513,147.6807 387.2242,154.5975 C390.9822,148.2902 396.7848,148.0373 399.9345,155.1728 C403.2507,148.0478 408.7701,148.8987 412.6642,154.5992 C417.3439,149.0802 422.7441,151.2942 424.6675,157.4363 C428.926,152.1899 432.9017,150.6274 437.1708,157.4253 C441.6545,153.0343 446.5476,154.1559 448.8505,159.9308 C453.0612,153.8744 458.3884,154.2314 462.7407,159.7611 C471.1274,162.7619 471.4761,168.8768 466.4732,175.1295 C477.2041,178.076 477.2435,183.7065 471.5036,191.664 C476.8577,199.2584 474.9254,205.1159 465.777,207.4489 C471.7546,212.6077 471.2162,218.9256 463.1842,221.4991 C460.0448,229.3507 453.1223,228.6637 449.1992,222.2683 C447.0784,228.5285 441.1729,230.2596 436.9108,224.4482 C433.2341,230.7097 428.2019,230.5555 424.4595,224.5147 C421.1128,230.6182 417.5614,232.067 412.3908,226.382 C408.1278,233.6872 402.8178,233.087 398.768,226.1776 C394.6638,232.2652 388.3318,231.2655 386.0031,224.4245 C382.5044,230.5012 376.8566,231.8375 372.841,224.9492 C368.5442,230.3473 363.6405,229.6562 361.2997,223.0662 C357.7827,228.4342 352.8697,227.8291 349.7929,222.5885 C345.6901,228.231 339.0271,228.3002 335.8,221.596 C328.4051,218.3766 326.1416,212.6936 332.1747,206.2931 C323.2378,204.1037 322.4509,198.8578 327.4729,192.058 C320.6136,184.451 321.752,177.7502 332.4287,175.3423 C326.5202,169.6694 326.2261,162.4557 335.1187,159.2583 " fill="none" style="stroke:#181818;stroke-width:1.0;"/></g><!--MD5=[a8e31809c94bd3920922c17a126bb0b3]
cluster MySql--><g id="cluster_MySql"><path d="M301,263 C301,253 398.5,253 398.5,253 C398.5,253 496,253 496,263 L496,543 C496,553 398.5,553 398.5,553 C398.5,553 301,553 301,543 L301,263 " fill="none" style="stroke:#181818;stroke-width:1.0;"/><path d="M301,263 C301,273 398.5,273 398.5,273 C398.5,273 496,273 496,263 " fill="none" style="stroke:#181818;stroke-width:1.0;"/><text fill="#000000" font-family="sans-serif" font-size="14" font-weight="bold" lengthAdjust="spacing" textLength="46" x="375.5" y="287.9951">MySql</text></g><!--MD5=[57a7dd60b0970f41fd8892a58576fbc8]
cluster This is my folder--><g id="cluster_This is my folder"><path d="M327.5,311 L459.5,311 A3.75,3.75 0 0 1 462,313.5 L469,333.2969 L469.5,333.2969 A2.5,2.5 0 0 1 472,335.7969 L472,405.5 A2.5,2.5 0 0 1 469.5,408 L327.5,408 A2.5,2.5 0 0 1 325,405.5 L325,313.5 A2.5,2.5 0 0 1 327.5,311 " fill="none" style="stroke:#000000;stroke-width:1.5;"/><line style="stroke:#000000;stroke-width:1.5;" x1="325" x2="469" y1="333.2969" y2="333.2969"/><text fill="#000000" font-family="sans-serif" font-size="14" font-weight="bold" lengthAdjust="spacing" textLength="131" x="329" y="325.9951">This is my folder</text></g><!--MD5=[b098bf3b49ab5940c6091a421f0675e2]
cluster Foo--><g id="cluster_Foo"><rect fill="none" height="97" rx="2.5" ry="2.5" style="stroke:#181818;stroke-width:1.0;" width="128" x="334" y="432"/><path d="M373,432 L373,441.2969 L363,451.2969 L334,451.2969 " fill="none" style="stroke:#181818;stroke-width:1.0;"/><text fill="#000000" font-family="sans-serif" font-size="14" font-weight="bold" lengthAdjust="spacing" textLength="29" x="337" y="445.9951">Foo</text></g><!--MD5=[96f7e1299d4a43069e6ed32352fcac20]
entity HTTP--><g id="elem_HTTP"><ellipse cx="222" cy="64" fill="#F1F1F1" rx="8" ry="8" style="stroke:#181818;stroke-width:0.5;"/><text fill="#000000" font-family="sans-serif" font-size="14" lengthAdjust="spacing" textLength="37" x="203.5" y="93.9951">HTTP</text></g><!--MD5=[cbd7cda55f2530e2efe43ec72c097853]
entity First Component--><g id="elem_First Component"><rect fill="#F1F1F1" height="46.2969" rx="2.5" ry="2.5" style="stroke:#181818;stroke-width:0.5;" width="155" x="22.5" y="41"/><rect fill="#F1F1F1" height="10" style="stroke:#181818;stroke-width:0.5;" width="15" x="157.5" y="46"/><rect fill="#F1F1F1" height="2" style="stroke:#181818;stroke-width:0.5;" width="4" x="155.5" y="48"/><rect fill="#F1F1F1" height="2" style="stroke:#181818;stroke-width:0.5;" width="4" x="155.5" y="52"/><text fill="#000000" font-family="sans-serif" font-size="14" lengthAdjust="spacing" textLength="115" x="37.5" y="73.9951">First Component</text></g><!--MD5=[b9d11f23832c1491231c5b33e55ab8c6]
entity Another Component--><g id="elem_Another Component"><rect fill="#F1F1F1" height="46.2969" rx="2.5" ry="2.5" style="stroke:#181818;stroke-width:0.5;" width="181" x="266.5" y="41"/><rect fill="#F1F1F1" height="10" style="stroke:#181818;stroke-width:0.5;" width="15" x="427.5" y="46"/><rect fill="#F1F1F1" height="2" style="stroke:#181818;stroke-width:0.5;" width="4" x="425.5" y="48"/><rect fill="#F1F1F1" height="2" style="stroke:#181818;stroke-width:0.5;" width="4" x="425.5" y="52"/><text fill="#000000" font-family="sans-serif" font-size="14" lengthAdjust="spacing" textLength="141" x="281.5" y="73.9951">Another Component</text></g><!--MD5=[76af18d92d7d7c0f7ebd8f4f605ac5aa]
entity FTP--><g id="elem_FTP"><ellipse cx="63" cy="190" fill="#F1F1F1" rx="8" ry="8" style="stroke:#181818;stroke-width:0.5;"/><text fill="#000000" font-family="sans-serif" font-size="14" lengthAdjust="spacing" textLength="26" x="50" y="219.9951">FTP</text></g><!--MD5=[0e2cc1aee2c7f52697e111b4fb84546c]
entity Second Component--><g id="elem_Second Component"><rect fill="#F1F1F1" height="46.2969" rx="2.5" ry="2.5" style="stroke:#181818;stroke-width:0.5;" width="179" x="107.5" y="167"/><rect fill="#F1F1F1" height="10" style="stroke:#181818;stroke-width:0.5;" width="15" x="266.5" y="172"/><rect fill="#F1F1F1" height="2" style="stroke:#181818;stroke-width:0.5;" width="4" x="264.5" y="174"/><rect fill="#F1F1F1" height="2" style="stroke:#181818;stroke-width:0.5;" width="4" x="264.5" y="178"/><text fill="#000000" font-family="sans-serif" font-size="14" lengthAdjust="spacing" textLength="139" x="122.5" y="199.9951">Second Component</text></g><!--MD5=[243c1e580c31013c48b02624e18b25a7]
entity Example 1--><g id="elem_Example 1"><rect fill="#F1F1F1" height="46.2969" rx="2.5" ry="2.5" style="stroke:#181818;stroke-width:0.5;" width="111" x="342.5" y="167"/><rect fill="#F1F1F1" height="10" style="stroke:#181818;stroke-width:0.5;" width="15" x="433.5" y="172"/><rect fill="#F1F1F1" height="2" style="stroke:#181818;stroke-width:0.5;" width="4" x="431.5" y="174"/><rect fill="#F1F1F1" height="2" style="stroke:#181818;stroke-width:0.5;" width="4" x="431.5" y="178"/><text fill="#000000" font-family="sans-serif" font-size="14" lengthAdjust="spacing" textLength="71" x="357.5" y="199.9951">Example 1</text></g><!--MD5=[3e0e08c92570480402984701ab5a6d2d]
entity Folder 3--><g id="elem_Folder 3"><rect fill="#F1F1F1" height="46.2969" rx="2.5" ry="2.5" style="stroke:#181818;stroke-width:0.5;" width="96" x="350" y="346"/><rect fill="#F1F1F1" height="10" style="stroke:#181818;stroke-width:0.5;" width="15" x="426" y="351"/><rect fill="#F1F1F1" height="2" style="stroke:#181818;stroke-width:0.5;" width="4" x="424" y="353"/><rect fill="#F1F1F1" height="2" style="stroke:#181818;stroke-width:0.5;" width="4" x="424" y="357"/><text fill="#000000" font-family="sans-serif" font-size="14" lengthAdjust="spacing" textLength="56" x="365" y="378.9951">Folder 3</text></g><!--MD5=[63877ed85df621d134a6c80fb52dad56]
entity Frame 4--><g id="elem_Frame 4"><rect fill="#F1F1F1" height="46.2969" rx="2.5" ry="2.5" style="stroke:#181818;stroke-width:0.5;" width="96" x="350" y="467"/><rect fill="#F1F1F1" height="10" style="stroke:#181818;stroke-width:0.5;" width="15" x="426" y="472"/><rect fill="#F1F1F1" height="2" style="stroke:#181818;stroke-width:0.5;" width="4" x="424" y="474"/><rect fill="#F1F1F1" height="2" style="stroke:#181818;stroke-width:0.5;" width="4" x="424" y="478"/><text fill="#000000" font-family="sans-serif" font-size="14" lengthAdjust="spacing" textLength="56" x="365" y="499.9951">Frame 4</text></g><!--MD5=[46d996859f59e5baf77956ce93023cee]
link HTTP to First Component--><g id="link_HTTP_First Component"><path d="M213,64 C201.22,64 189.45,64 177.68,64 " fill="none" id="HTTP-First Component" style="stroke:#181818;stroke-width:1.0;"/></g><!--MD5=[1966a42bb49d59057147dbda06282f4b]
link FTP to Second Component--><g id="link_FTP_Second Component"><path d="M72.16,190 C83.86,190 95.57,190 107.27,190 " fill="none" id="FTP-Second Component" style="stroke:#181818;stroke-width:1.0;"/></g><!--MD5=[d3aefbd8005e27b21e7ce98ddd948193]
link First Component to FTP--><g id="link_First Component_FTP"><path d="M93.39,87.17 C85.68,112.98 73.21,154.78 66.91,175.9 " fill="none" id="First Component-to-FTP" style="stroke:#181818;stroke-width:1.0;"/><polygon fill="#181818" points="65.45,180.8,71.8777,173.3377,66.8933,176.0128,64.2182,171.0285,65.45,180.8" style="stroke:#181818;stroke-width:1.0;"/></g><!--MD5=[efc1ffe8b578a0fb156c7bce303319bb]
link Another Component to Example 1--><g id="link_Another Component_Example 1"><path d="M364.33,87.17 C371.23,108.02 381.57,139.3 388.97,161.69 " fill="none" id="Another Component-to-Example 1" style="stroke:#181818;stroke-width:1.0;"/><polygon fill="#181818" points="390.6,166.61,391.5752,156.8095,389.0317,161.8623,383.9789,159.3188,390.6,166.61" style="stroke:#181818;stroke-width:1.0;"/></g><!--MD5=[7ec8393a78a133520e8846dd05a7857a]
link Example 1 to Folder 3--><g id="link_Example 1_Folder 3"><path d="M398,213.06 C398,245.34 398,305.42 398,340.53 " fill="none" id="Example 1-to-Folder 3" style="stroke:#181818;stroke-width:1.0;"/><polygon fill="#181818" points="398,345.94,402,336.94,398,340.94,394,336.94,398,345.94" style="stroke:#181818;stroke-width:1.0;"/></g><!--MD5=[b96c7096199393c1414a8b4e9ed2c30f]
link Folder 3 to Frame 4--><g id="link_Folder 3_Frame 4"><path d="M398,392.1 C398,411.68 398,440.35 398,461.43 " fill="none" id="Folder 3-to-Frame 4" style="stroke:#181818;stroke-width:1.0;"/><polygon fill="#181818" points="398,466.61,402,457.61,398,461.61,394,457.61,398,466.61" style="stroke:#181818;stroke-width:1.0;"/></g><!--MD5=[17f00d948016dfd45f64082f7d6b548f]
@startuml
package "Some Group" {
HTTP - [First Component]
[Another Component]
}
node "Other Groups" {
FTP - [Second Component]
[First Component] - -> FTP
}
cloud {
[Example 1]
}
database "MySql" {
folder "This is my folder" {
    [Folder 3]
}
frame "Foo" {
    [Frame 4]
}
}
[Another Component] - -> [Example 1]
[Example 1] - -> [Folder 3]
[Folder 3] - -> [Frame 4]
@enduml

PlantUML version 1.2022.9(Tue Sep 27 16:10:06 GMT 2022)
(GPL source distribution)
Java Runtime: OpenJDK Runtime Environment
JVM: OpenJDK 64-Bit Server VM
Default Encoding: UTF-8
Language: en
Country: US
--></g></svg>