<?xml version="1.0" encoding="UTF-8" standalone="no"?><svg xmlns="http://www.w3.org/2000/svg" xmlns:xlink="http://www.w3.org/1999/xlink" contentStyleType="text/css" height="134px" preserveAspectRatio="none" style="width:833px;height:134px;background:#FFFFFF;" version="1.1" viewBox="0 0 833 134" width="833px" zoomAndPan="magnify"><defs/><g><rect fill="#F1F1F1" height="36.2969" rx="12.5" ry="12.5" style="stroke:#181818;stroke-width:1.5;" width="88" x="265" y="48.1484"/><text fill="#000000" font-family="sans-serif" font-size="14" lengthAdjust="spacing" textLength="68" x="275" y="71.1436">root node</text><rect fill="#F1F1F1" height="36.2969" rx="12.5" ry="12.5" style="stroke:#181818;stroke-width:1.5;" width="163" x="403" y="48.1484"/><text fill="#000000" font-family="sans-serif" font-size="14" lengthAdjust="spacing" textLength="143" x="413" y="71.1436">some first level node</text><rect fill="#F1F1F1" height="36.2969" rx="12.5" ry="12.5" style="stroke:#181818;stroke-width:1.5;" width="147" x="616" y="20"/><text fill="#000000" font-family="sans-serif" font-size="14" lengthAdjust="spacing" textLength="127" x="626" y="42.9951">second level node</text><path d="M566,66.2969 L576,66.2969 C591,66.2969 591,38.1484 606,38.1484 L616,38.1484 " fill="none" style="stroke:#181818;stroke-width:1.0;"/><rect fill="#F1F1F1" height="36.2969" rx="12.5" ry="12.5" style="stroke:#181818;stroke-width:1.5;" width="205" x="616" y="76.2969"/><text fill="#000000" font-family="sans-serif" font-size="14" lengthAdjust="spacing" textLength="185" x="626" y="99.292">another second level node</text><path d="M566,66.2969 L576,66.2969 C591,66.2969 591,94.4453 606,94.4453 L616,94.4453 " fill="none" style="stroke:#181818;stroke-width:1.0;"/><path d="M353,66.2969 L363,66.2969 C378,66.2969 378,66.2969 393,66.2969 L403,66.2969 " fill="none" style="stroke:#181818;stroke-width:1.0;"/><rect fill="#F1F1F1" height="36.2969" rx="12.5" ry="12.5" style="stroke:#181818;stroke-width:1.5;" width="178" x="37" y="20"/><text fill="#000000" font-family="sans-serif" font-size="14" lengthAdjust="spacing" textLength="158" x="47" y="42.9951">another first level node</text><path d="M265,66.2969 L255,66.2969 C240,66.2969 240,38.1484 225,38.1484 L215,38.1484 " fill="none" style="stroke:#181818;stroke-width:1.0;"/><rect fill="#F1F1F1" height="36.2969" rx="12.5" ry="12.5" style="stroke:#181818;stroke-width:1.5;" width="205" x="10" y="76.2969"/><text fill="#000000" font-family="sans-serif" font-size="14" lengthAdjust="spacing" textLength="185" x="20" y="99.292">another second level node</text><path d="M265,66.2969 L255,66.2969 C240,66.2969 240,94.4453 225,94.4453 L215,94.4453 " fill="none" style="stroke:#181818;stroke-width:1.0;"/><!--MD5=[24dd7f63e20cfe6258f776058e9945d8]
@startmindmap
+ root node
++ some first level node
+++ second level node
+++ another second level node
- - another first level node
- - another second level node
@endmindmap

PlantUML version 1.2022.9(Tue Sep 27 16:10:06 GMT 2022)
(GPL source distribution)
Java Runtime: OpenJDK Runtime Environment
JVM: OpenJDK 64-Bit Server VM
Default Encoding: UTF-8
Language: en
Country: US
--></g></svg>