<?xml version="1.0" encoding="UTF-8" standalone="no"?><svg xmlns="http://www.w3.org/2000/svg" xmlns:xlink="http://www.w3.org/1999/xlink" contentStyleType="text/css" height="373px" preserveAspectRatio="none" style="width:707px;height:373px;background:#FFFFFF;" version="1.1" viewBox="0 0 707 373" width="707px" zoomAndPan="magnify"><defs/><g><line style="stroke:#181818;stroke-width:1.5;" x1="185" x2="185" y1="63.9688" y2="83.9688"/><rect fill="#F1F1F1" height="33.9688" style="stroke:#181818;stroke-width:1.5;" width="197" x="86.5" y="83.9688"/><text fill="#000000" font-family="sans-serif" font-size="12" lengthAdjust="spacing" textLength="177" x="96.5" y="105.1074">Decide on Job Requirements</text><line style="stroke:#181818;stroke-width:1.5;" x1="175" x2="185" y1="149.9219" y2="149.9219"/><rect fill="#F1F1F1" height="33.9688" style="stroke:#181818;stroke-width:1.5;" width="76" x="99" y="132.9375"/><text fill="#000000" font-family="sans-serif" font-size="12" lengthAdjust="spacing" textLength="56" x="109" y="154.0762">Checklist</text><line style="stroke:#181818;stroke-width:1.5;" x1="127" x2="137" y1="198.8906" y2="198.8906"/><rect fill="#F1F1F1" height="33.9688" style="stroke:#181818;stroke-width:1.5;" width="117" x="10" y="181.9063"/><text fill="#000000" font-family="sans-serif" font-size="12" lengthAdjust="spacing" textLength="97" x="20" y="203.0449">Responsibilities</text><line style="stroke:#181818;stroke-width:1.5;" x1="127" x2="137" y1="247.8594" y2="247.8594"/><rect fill="#F1F1F1" height="33.9688" style="stroke:#181818;stroke-width:1.5;" width="73" x="54" y="230.875"/><text fill="#000000" font-family="sans-serif" font-size="12" lengthAdjust="spacing" textLength="53" x="64" y="252.0137">Location</text><line style="stroke:#181818;stroke-width:1.5;" x1="137" x2="137" y1="166.9063" y2="247.8594"/><line style="stroke:#181818;stroke-width:1.5;" x1="185" x2="195" y1="149.9219" y2="149.9219"/><rect fill="#F1F1F1" height="33.9688" style="stroke:#181818;stroke-width:1.5;" width="101" x="195" y="132.9375"/><text fill="#000000" font-family="sans-serif" font-size="12" lengthAdjust="spacing" textLength="81" x="205" y="154.0762">Identity gaps</text><line style="stroke:#181818;stroke-width:1.5;" x1="185" x2="195" y1="198.8906" y2="198.8906"/><rect fill="#F1F1F1" height="33.9688" style="stroke:#181818;stroke-width:1.5;" width="85" x="195" y="181.9063"/><text fill="#000000" font-family="sans-serif" font-size="12" lengthAdjust="spacing" textLength="65" x="205" y="203.0449">Review JDs</text><line style="stroke:#181818;stroke-width:1.5;" x1="237.5" x2="247.5" y1="247.8594" y2="247.8594"/><rect fill="#F1F1F1" height="33.9688" style="stroke:#181818;stroke-width:1.5;" width="143" x="247.5" y="230.875"/><text fill="#000000" font-family="sans-serif" font-size="12" lengthAdjust="spacing" textLength="123" x="257.5" y="252.0137">Sign-Up for courses</text><line style="stroke:#181818;stroke-width:1.5;" x1="237.5" x2="247.5" y1="296.8281" y2="296.8281"/><rect fill="#F1F1F1" height="33.9688" style="stroke:#181818;stroke-width:1.5;" width="81" x="247.5" y="279.8438"/><text fill="#000000" font-family="sans-serif" font-size="12" lengthAdjust="spacing" textLength="61" x="257.5" y="300.9824">Volunteer</text><line style="stroke:#181818;stroke-width:1.5;" x1="237.5" x2="247.5" y1="345.7969" y2="345.7969"/><rect fill="#F1F1F1" height="33.9688" style="stroke:#181818;stroke-width:1.5;" width="71" x="247.5" y="328.8125"/><text fill="#000000" font-family="sans-serif" font-size="12" lengthAdjust="spacing" textLength="51" x="257.5" y="349.9512">Reading</text><line style="stroke:#181818;stroke-width:1.5;" x1="237.5" x2="237.5" y1="215.875" y2="345.7969"/><line style="stroke:#181818;stroke-width:1.5;" x1="185" x2="185" y1="117.9375" y2="198.8906"/><line style="stroke:#181818;stroke-width:1.5;" x1="471" x2="471" y1="63.9688" y2="83.9688"/><rect fill="#F1F1F1" height="33.9688" style="stroke:#181818;stroke-width:1.5;" width="121" x="410.5" y="83.9688"/><text fill="#000000" font-family="sans-serif" font-size="12" lengthAdjust="spacing" textLength="101" x="420.5" y="105.1074">CV Upload Done</text><line style="stroke:#181818;stroke-width:1.5;" x1="471" x2="495" y1="149.9219" y2="149.9219"/><rect fill="#F1F1F1" height="33.9688" style="stroke:#181818;stroke-width:1.5;" width="94" x="495" y="132.9375"/><text fill="#000000" font-family="sans-serif" font-size="12" lengthAdjust="spacing" textLength="74" x="505" y="154.0762">CV Updated</text><line style="stroke:#181818;stroke-width:1.5;" x1="532" x2="542" y1="198.8906" y2="198.8906"/><rect fill="#F1F1F1" height="33.9688" style="stroke:#181818;stroke-width:1.5;" width="51" x="481" y="181.9063"/><text fill="#000000" font-family="sans-serif" font-size="12" lengthAdjust="spacing" textLength="31" x="491" y="203.0449">Skills</text><line style="stroke:#181818;stroke-width:1.5;" x1="542" x2="552" y1="198.8906" y2="198.8906"/><rect fill="#F1F1F1" height="33.9688" style="stroke:#181818;stroke-width:1.5;" width="144" x="552" y="181.9063"/><text fill="#000000" font-family="sans-serif" font-size="12" lengthAdjust="spacing" textLength="124" x="562" y="203.0449">Spelling &amp; Grammar</text><line style="stroke:#181818;stroke-width:1.5;" x1="542" x2="552" y1="247.8594" y2="247.8594"/><rect fill="#F1F1F1" height="33.9688" style="stroke:#181818;stroke-width:1.5;" width="98" x="552" y="230.875"/><text fill="#000000" font-family="sans-serif" font-size="12" lengthAdjust="spacing" textLength="78" x="562" y="252.0137">Check dates</text><line style="stroke:#181818;stroke-width:1.5;" x1="542" x2="542" y1="166.9063" y2="247.8594"/><line style="stroke:#181818;stroke-width:1.5;" x1="471" x2="481" y1="296.8281" y2="296.8281"/><rect fill="#F1F1F1" height="33.9688" style="stroke:#181818;stroke-width:1.5;" width="180" x="481" y="279.8438"/><text fill="#000000" font-family="sans-serif" font-size="12" lengthAdjust="spacing" textLength="160" x="491" y="300.9824">Recruitment sites chosen</text><line style="stroke:#181818;stroke-width:1.5;" x1="471" x2="471" y1="117.9375" y2="296.8281"/><line style="stroke:#181818;stroke-width:1.5;" x1="185" x2="471" y1="63.9688" y2="63.9688"/><rect fill="#F1F1F1" height="33.9688" style="stroke:#181818;stroke-width:1.5;" width="69" x="293.5" y="10"/><text fill="#000000" font-family="sans-serif" font-size="12" lengthAdjust="spacing" textLength="49" x="303.5" y="31.1387">New Job</text><line style="stroke:#181818;stroke-width:1.5;" x1="328" x2="328" y1="43.9688" y2="63.9688"/><!--MD5=[e2a62c1ae3a8b8a0bab1b3e78cdac758]
@startwbs
+ New Job
++ Decide on Job Requirements
+++ Identity gaps
+++ Review JDs
++++ Sign-Up for courses
++++ Volunteer
++++ Reading
++- Checklist
+++- Responsibilities
+++- Location
++ CV Upload Done
+++ CV Updated
++++ Spelling & Grammar
++++ Check dates
- - - - Skills
+++ Recruitment sites chosen
@endwbs

PlantUML version 1.2022.9(Tue Sep 27 16:10:06 GMT 2022)
(GPL source distribution)
Java Runtime: OpenJDK Runtime Environment
JVM: OpenJDK 64-Bit Server VM
Default Encoding: UTF-8
Language: en
Country: US
--></g></svg>