<?xml version="1.0" encoding="UTF-8" standalone="no"?>
<!DOCTYPE svg PUBLIC "-//W3C//DTD SVG 1.1//EN"
 "http://www.w3.org/Graphics/SVG/1.1/DTD/svg11.dtd">
<!-- Generated by graphviz version 3.0.0 (20220413.0242)
 -->
<!-- Title: finite_state_machine Pages: 1 -->
<svg width="817pt" height="252pt"
 viewBox="0.00 0.00 817.50 252.00" xmlns="http://www.w3.org/2000/svg" xmlns:xlink="http://www.w3.org/1999/xlink">
<g id="graph0" class="graph" transform="scale(1 1) rotate(0) translate(4 248)">
<title>finite_state_machine</title>
<polygon fill="white" stroke="transparent" points="-4,4 -4,-248 813.5,-248 813.5,4 -4,4"/>
<!-- 0 -->
<g id="node1" class="node">
<title>0</title>
<ellipse fill="none" stroke="black" cx="22" cy="-76" rx="18" ry="18"/>
<ellipse fill="none" stroke="black" cx="22" cy="-76" rx="22" ry="22"/>
<text text-anchor="middle" x="22" y="-72.3" font-family="Helvetica,Arial,sans-serif" font-size="14.00">0</text>
</g>
<!-- 2 -->
<g id="node5" class="node">
<title>2</title>
<ellipse fill="none" stroke="black" cx="137" cy="-105" rx="18" ry="18"/>
<text text-anchor="middle" x="137" y="-101.3" font-family="Helvetica,Arial,sans-serif" font-size="14.00">2</text>
</g>
<!-- 0&#45;&gt;2 -->
<g id="edge1" class="edge">
<title>0&#45;&gt;2</title>
<path fill="none" stroke="black" d="M43.46,-81.25C61.99,-86.01 89.38,-93.03 109.55,-98.21"/>
<polygon fill="black" stroke="black" points="108.81,-101.63 119.36,-100.73 110.55,-94.85 108.81,-101.63"/>
<text text-anchor="middle" x="81.5" y="-98.8" font-family="Helvetica,Arial,sans-serif" font-size="14.00">SS(B)</text>
</g>
<!-- 1 -->
<g id="node6" class="node">
<title>1</title>
<ellipse fill="none" stroke="black" cx="137" cy="-49" rx="18" ry="18"/>
<text text-anchor="middle" x="137" y="-45.3" font-family="Helvetica,Arial,sans-serif" font-size="14.00">1</text>
</g>
<!-- 0&#45;&gt;1 -->
<g id="edge2" class="edge">
<title>0&#45;&gt;1</title>
<path fill="none" stroke="black" d="M42.63,-68.21C48.77,-65.98 55.6,-63.7 62,-62 77.37,-57.92 94.89,-54.78 109.02,-52.61"/>
<polygon fill="black" stroke="black" points="109.68,-56.05 119.07,-51.14 108.67,-49.12 109.68,-56.05"/>
<text text-anchor="middle" x="81.5" y="-65.8" font-family="Helvetica,Arial,sans-serif" font-size="14.00">SS(S)</text>
</g>
<!-- 3 -->
<g id="node2" class="node">
<title>3</title>
<ellipse fill="none" stroke="black" cx="268" cy="-22" rx="18" ry="18"/>
<ellipse fill="none" stroke="black" cx="268" cy="-22" rx="22" ry="22"/>
<text text-anchor="middle" x="268" y="-18.3" font-family="Helvetica,Arial,sans-serif" font-size="14.00">3</text>
</g>
<!-- 4 -->
<g id="node3" class="node">
<title>4</title>
<ellipse fill="none" stroke="black" cx="268" cy="-222" rx="18" ry="18"/>
<ellipse fill="none" stroke="black" cx="268" cy="-222" rx="22" ry="22"/>
<text text-anchor="middle" x="268" y="-218.3" font-family="Helvetica,Arial,sans-serif" font-size="14.00">4</text>
</g>
<!-- 8 -->
<g id="node4" class="node">
<title>8</title>
<ellipse fill="none" stroke="black" cx="578" cy="-113" rx="18" ry="18"/>
<ellipse fill="none" stroke="black" cx="578" cy="-113" rx="22" ry="22"/>
<text text-anchor="middle" x="578" y="-109.3" font-family="Helvetica,Arial,sans-serif" font-size="14.00">8</text>
</g>
<!-- 6 -->
<g id="node7" class="node">
<title>6</title>
<ellipse fill="none" stroke="black" cx="268" cy="-131" rx="18" ry="18"/>
<text text-anchor="middle" x="268" y="-127.3" font-family="Helvetica,Arial,sans-serif" font-size="14.00">6</text>
</g>
<!-- 8&#45;&gt;6 -->
<g id="edge13" class="edge">
<title>8&#45;&gt;6</title>
<path fill="none" stroke="black" d="M556.48,-117.89C517.28,-126.7 428.97,-143.96 354,-140 334.55,-138.97 312.7,-136.63 296.03,-134.6"/>
<polygon fill="black" stroke="black" points="296.25,-131.1 285.89,-133.32 295.38,-138.04 296.25,-131.1"/>
<text text-anchor="middle" x="422.5" y="-142.8" font-family="Helvetica,Arial,sans-serif" font-size="14.00">S(b)</text>
</g>
<!-- 5 -->
<g id="node8" class="node">
<title>5</title>
<ellipse fill="none" stroke="black" cx="372" cy="-80" rx="18" ry="18"/>
<text text-anchor="middle" x="372" y="-76.3" font-family="Helvetica,Arial,sans-serif" font-size="14.00">5</text>
</g>
<!-- 8&#45;&gt;5 -->
<g id="edge14" class="edge">
<title>8&#45;&gt;5</title>
<path fill="none" stroke="black" d="M556.02,-111.12C523.91,-108.02 460.74,-101.06 408,-90 405.1,-89.39 402.09,-88.67 399.11,-87.9"/>
<polygon fill="black" stroke="black" points="399.83,-84.47 389.26,-85.17 397.96,-91.21 399.83,-84.47"/>
<text text-anchor="middle" x="473" y="-106.8" font-family="Helvetica,Arial,sans-serif" font-size="14.00">S(a)</text>
</g>
<!-- 9 -->
<g id="node10" class="node">
<title>9</title>
<ellipse fill="none" stroke="black" cx="682" cy="-113" rx="18" ry="18"/>
<text text-anchor="middle" x="682" y="-109.3" font-family="Helvetica,Arial,sans-serif" font-size="14.00">9</text>
</g>
<!-- 8&#45;&gt;9 -->
<g id="edge15" class="edge">
<title>8&#45;&gt;9</title>
<path fill="none" stroke="black" d="M600.13,-113C615.64,-113 636.84,-113 653.64,-113"/>
<polygon fill="black" stroke="black" points="653.95,-116.5 663.95,-113 653.95,-109.5 653.95,-116.5"/>
<text text-anchor="middle" x="632" y="-116.8" font-family="Helvetica,Arial,sans-serif" font-size="14.00">S(x)</text>
</g>
<!-- 2&#45;&gt;4 -->
<g id="edge6" class="edge">
<title>2&#45;&gt;4</title>
<path fill="none" stroke="black" d="M150.04,-117.93C156.67,-124.91 165.13,-133.59 173,-141 195.92,-162.58 223.3,-185.92 242.58,-201.97"/>
<polygon fill="black" stroke="black" points="240.38,-204.69 250.31,-208.38 244.85,-199.3 240.38,-204.69"/>
<text text-anchor="middle" x="200.5" y="-190.8" font-family="Helvetica,Arial,sans-serif" font-size="14.00">S(A)</text>
</g>
<!-- 2&#45;&gt;6 -->
<g id="edge4" class="edge">
<title>2&#45;&gt;6</title>
<path fill="none" stroke="black" d="M154.86,-108.4C176.59,-112.78 214.62,-120.44 240.3,-125.62"/>
<polygon fill="black" stroke="black" points="239.64,-129.06 250.13,-127.6 241.02,-122.19 239.64,-129.06"/>
<text text-anchor="middle" x="200.5" y="-125.8" font-family="Helvetica,Arial,sans-serif" font-size="14.00">SS(b)</text>
</g>
<!-- 2&#45;&gt;5 -->
<g id="edge5" class="edge">
<title>2&#45;&gt;5</title>
<path fill="none" stroke="black" d="M154.79,-102.11C175.98,-98.56 213.59,-92.56 246,-89 279.53,-85.31 318.3,-82.79 343.66,-81.38"/>
<polygon fill="black" stroke="black" points="344.18,-84.85 353.98,-80.82 343.81,-77.86 344.18,-84.85"/>
<text text-anchor="middle" x="268" y="-92.8" font-family="Helvetica,Arial,sans-serif" font-size="14.00">SS(a)</text>
</g>
<!-- 1&#45;&gt;3 -->
<g id="edge3" class="edge">
<title>1&#45;&gt;3</title>
<path fill="none" stroke="black" d="M154.86,-45.47C175.51,-41.15 210.88,-33.75 236.38,-28.41"/>
<polygon fill="black" stroke="black" points="237.22,-31.81 246.29,-26.33 235.79,-24.96 237.22,-31.81"/>
<text text-anchor="middle" x="200.5" y="-45.8" font-family="Helvetica,Arial,sans-serif" font-size="14.00">S($end)</text>
</g>
<!-- 6&#45;&gt;6 -->
<g id="edge9" class="edge">
<title>6&#45;&gt;6</title>
<path fill="none" stroke="black" d="M258.77,-146.54C256.17,-156.91 259.25,-167 268,-167 273.74,-167 277.04,-162.65 277.9,-156.74"/>
<polygon fill="black" stroke="black" points="281.38,-156.29 277.23,-146.54 274.39,-156.75 281.38,-156.29"/>
<text text-anchor="middle" x="268" y="-170.8" font-family="Helvetica,Arial,sans-serif" font-size="14.00">S(b)</text>
</g>
<!-- 6&#45;&gt;5 -->
<g id="edge10" class="edge">
<title>6&#45;&gt;5</title>
<path fill="none" stroke="black" d="M284.49,-123.25C300.99,-115.01 327.32,-101.84 346.61,-92.2"/>
<polygon fill="black" stroke="black" points="348.32,-95.25 355.7,-87.65 345.19,-88.99 348.32,-95.25"/>
<text text-anchor="middle" x="322" y="-113.8" font-family="Helvetica,Arial,sans-serif" font-size="14.00">S(a)</text>
</g>
<!-- 5&#45;&gt;5 -->
<g id="edge8" class="edge">
<title>5&#45;&gt;5</title>
<path fill="none" stroke="black" d="M363.37,-95.92C361.11,-106.15 363.99,-116 372,-116 377.26,-116 380.3,-111.76 381.14,-105.95"/>
<polygon fill="black" stroke="black" points="384.63,-105.73 380.63,-95.92 377.64,-106.08 384.63,-105.73"/>
<text text-anchor="middle" x="372" y="-119.8" font-family="Helvetica,Arial,sans-serif" font-size="14.00">S(a)</text>
</g>
<!-- 7 -->
<g id="node9" class="node">
<title>7</title>
<ellipse fill="none" stroke="black" cx="473" cy="-59" rx="18" ry="18"/>
<text text-anchor="middle" x="473" y="-55.3" font-family="Helvetica,Arial,sans-serif" font-size="14.00">7</text>
</g>
<!-- 5&#45;&gt;7 -->
<g id="edge7" class="edge">
<title>5&#45;&gt;7</title>
<path fill="none" stroke="black" d="M389.79,-76.44C404.87,-73.24 427.27,-68.49 444.88,-64.75"/>
<polygon fill="black" stroke="black" points="446.07,-68.08 455.12,-62.58 444.61,-61.23 446.07,-68.08"/>
<text text-anchor="middle" x="422.5" y="-74.8" font-family="Helvetica,Arial,sans-serif" font-size="14.00">S(b)</text>
</g>
<!-- 7&#45;&gt;8 -->
<g id="edge11" class="edge">
<title>7&#45;&gt;8</title>
<path fill="none" stroke="black" d="M490.32,-64.03C503.58,-68.43 522.56,-75.44 538,-84 542.89,-86.71 547.86,-89.96 552.54,-93.29"/>
<polygon fill="black" stroke="black" points="550.47,-96.1 560.58,-99.26 554.64,-90.49 550.47,-96.1"/>
<text text-anchor="middle" x="523.5" y="-87.8" font-family="Helvetica,Arial,sans-serif" font-size="14.00">S(b)</text>
</g>
<!-- 7&#45;&gt;5 -->
<g id="edge12" class="edge">
<title>7&#45;&gt;5</title>
<path fill="none" stroke="black" d="M456.28,-52.2C443.03,-47.48 423.77,-43.02 408,-49 402.07,-51.25 396.5,-55.01 391.62,-59.16"/>
<polygon fill="black" stroke="black" points="388.95,-56.87 384.12,-66.3 393.78,-61.94 388.95,-56.87"/>
<text text-anchor="middle" x="422.5" y="-52.8" font-family="Helvetica,Arial,sans-serif" font-size="14.00">S(a)</text>
</g>
<!-- 10 -->
<g id="node11" class="node">
<title>10</title>
<ellipse fill="none" stroke="black" cx="786.75" cy="-113" rx="23" ry="23"/>
<text text-anchor="middle" x="786.75" y="-109.3" font-family="Helvetica,Arial,sans-serif" font-size="14.00">10</text>
</g>
<!-- 9&#45;&gt;10 -->
<g id="edge16" class="edge">
<title>9&#45;&gt;10</title>
<path fill="none" stroke="black" d="M700.43,-113C714.94,-113 735.99,-113 753.54,-113"/>
<polygon fill="black" stroke="black" points="753.94,-116.5 763.94,-113 753.94,-109.5 753.94,-116.5"/>
<text text-anchor="middle" x="732" y="-116.8" font-family="Helvetica,Arial,sans-serif" font-size="14.00">S(y)</text>
</g>
</g>
</svg>
